<?xml version="1.0" encoding="UTF-8" standalone="no"?>
<!-- Created with Inkscape (http://www.inkscape.org/) -->
<svg
   xmlns:dc="http://purl.org/dc/elements/1.1/"
   xmlns:cc="http://web.resource.org/cc/"
   xmlns:rdf="http://www.w3.org/1999/02/22-rdf-syntax-ns#"
   xmlns:svg="http://www.w3.org/2000/svg"
   xmlns="http://www.w3.org/2000/svg"
   xmlns:sodipodi="http://sodipodi.sourceforge.net/DTD/sodipodi-0.dtd"
   xmlns:inkscape="http://www.inkscape.org/namespaces/inkscape"
   width="200"
   height="200"
   id="svg1909"
   sodipodi:version="0.32"
   inkscape:version="0.44.1"
   version="1.0"
   sodipodi:docbase="E:\Imágenes\Graphics\Self"
   sodipodi:docname="Ev.svg">
  <defs
     id="defs1911" />
  <sodipodi:namedview
     id="base"
     pagecolor="#ffffff"
     bordercolor="#666666"
     borderopacity="1.0"
     inkscape:pageopacity="0.0"
     inkscape:pageshadow="2"
     inkscape:zoom="0.98994949"
     inkscape:cx="350"
     inkscape:cy="62.857143"
     inkscape:document-units="px"
     inkscape:current-layer="layer1"
     width="200px"
     height="200px"
     inkscape:window-width="942"
     inkscape:window-height="573"
     inkscape:window-x="74"
     inkscape:window-y="145" />
  <metadata
     id="metadata1914">
    <rdf:RDF>
      <cc:Work
         rdf:about="">
        <dc:format>image/svg+xml</dc:format>
        <dc:type
           rdf:resource="http://purl.org/dc/dcmitype/StillImage" />
      </cc:Work>
    </rdf:RDF>
  </metadata>
  <g
     inkscape:label="Capa 1"
     inkscape:groupmode="layer"
     id="layer1">
    <g
       id="g1926">
      <path
         sodipodi:nodetypes="cccsccccccssscc"
         id="path1904"
         d="M 129.91114,139.38563 L 175.11547,54.532818 L 162.48857,54.532818 C 162.48857,54.532818 154.65988,55.290433 152.89212,57.310738 C 151.12435,59.331043 150.36674,59.836119 150.36674,59.836119 C 150.36674,59.836119 167.36879,54.187442 157.94288,71.705411 L 131.17384,121.45542 L 94.050739,45.441446 C 94.050739,45.441446 92.030431,38.622915 68.796921,35.33992 L 68.276525,35.324601 C 68.276525,35.324601 76.175682,40.258619 78.075995,41.683953 C 79.917384,43.065091 78.944842,42.281623 79.793529,42.800001 C 80.565519,43.271533 81.325737,44.210924 82.694402,45.47734 C 84.10673,46.784157 88.494894,54.28028 88.494894,54.28028 C 102.30031,82.648732 116.10573,111.01718 129.91114,139.38563 z "
         style="fill:black;fill-rule:evenodd;stroke:black;stroke-width:1px;stroke-linecap:butt;stroke-linejoin:miter;stroke-opacity:1" />
      <path
         sodipodi:nodetypes="czzssccsssscsscsssccscccsssssc"
         id="path1937"
         d="M 118.52411,196.15033 C 99.193893,196.9915 87.846443,191.89072 80.514223,184.65574 C 70.974993,175.24303 68.726693,161.97062 69.606893,150.93634 C 70.643593,137.94021 76.244743,132.62801 76.244743,132.62801 C 76.244743,132.62801 26.494727,132.88055 21.443964,132.88055 C 16.393202,132.88055 14.246628,128.33486 14.246628,128.33486 C 23.969346,128.33486 23.843077,123.03156 23.843077,123.03156 C 23.843077,123.03156 24.474422,116.59184 24.979498,112.55123 C 25.484575,108.51062 27.252342,73.029018 27.378611,68.988408 C 27.50488,64.947797 26.747265,40.325329 25.737113,24.415426 C 24.72696,8.5055229 14.751704,13.05121 14.751704,13.05121 C 18.918583,6.6114872 23.46427,7.1165635 23.46427,7.1165635 L 84.704763,6.9902944 C 84.704763,6.9902944 84.957303,13.935094 84.957303,17.344359 C 84.957303,20.753623 84.957303,20.248547 79.275193,27.698422 C 80.931983,17.205456 75.854033,16.143694 73.567413,16.338421 C 71.280783,16.533147 78.795273,16.272125 69.931283,16.334206 C 61.067305,16.396287 36.217445,16.207937 36.217445,16.207937 L 36.343715,63.937645 L 53.768846,64.190183 C 53.768846,64.190183 63.365293,63.685107 70.941443,73.534094 L 36.343715,74.03917 L 36.343715,121.26379 L 84.578503,121.26379 C 84.578503,121.26379 95.437633,122.77902 105.03409,109.14196 C 105.03409,109.14196 104.99076,115.92986 90.848623,128.05169 C 87.804803,130.66068 83.687163,133.28919 80.832153,137.72171 C 75.718283,145.66121 72.363723,157.55821 75.985893,168.13884 C 78.958233,176.82125 85.596143,187.37714 102.05698,193.34757 C 106.37013,194.91197 113.03074,194.90403 118.52411,196.15033 z "
         style="fill:black;fill-rule:evenodd;stroke:black;stroke-width:1px;stroke-linecap:butt;stroke-linejoin:miter;stroke-opacity:1" />
      <path
         sodipodi:nodetypes="csccscssc"
         id="path1961"
         d="M 55.467336,33.428251 C 55.467336,33.428251 65.824195,18.573556 86.732292,10.847507 C 109.18476,2.5507734 142.25541,1.9952236 168.78466,27.967851 C 177.65605,36.169798 183.13233,48.198477 186.6912,59.438865 C 189.3276,70.398196 188.50309,67.502753 188.50305,70.035395 L 188.50305,70.213966 C 186.50727,53.698897 174.39297,36.484249 157.04535,24.541993 C 144.19585,15.696286 128.99972,10.359569 115.46275,9.3850588 C 81.866884,6.9665309 55.467336,33.428251 55.467336,33.428251 z "
         style="fill:black;fill-rule:evenodd;stroke:black;stroke-width:1px;stroke-linecap:butt;stroke-linejoin:miter;stroke-opacity:1" />
      <path
         sodipodi:nodetypes="cssscssc"
         id="path1969"
         d="M 40.251066,144.17395 C 40.251066,144.17395 56.922638,164.30644 81.977418,173.21125 C 102.78744,180.60742 137.61297,179.75802 165.24041,153.69405 C 171.28961,147.98718 181.22457,140.52717 189.09704,111.64704 L 189.80415,110.23283 C 186.2608,126.75044 181.92698,139.72742 170.60606,152.28373 C 139.34203,186.95943 97.549892,184.33199 77.43525,176.34647 C 53.680161,166.91569 40.251066,144.17395 40.251066,144.17395 z "
         style="fill:black;fill-rule:evenodd;stroke:black;stroke-width:1px;stroke-linecap:butt;stroke-linejoin:miter;stroke-opacity:1" />
    </g>
  </g>
</svg>
